<?xml version="1.0" encoding="utf-8"?>
<!-- Generator: Adobe Illustrator 23.1.0, SVG Export Plug-In . SVG Version: 6.00 Build 0)  -->
<svg version="1.1" id="图层_1" xmlns="http://www.w3.org/2000/svg" xmlns:xlink="http://www.w3.org/1999/xlink" x="0px" y="0px"
	 viewBox="0 0 152 152" style="enable-background:new 0 0 152 152;" xml:space="preserve">
<style type="text/css">
	.st0{fill:#CCCCCC;}
	.st1{fill:none;stroke:#666666;stroke-width:5;stroke-miterlimit:10;}
	.st2{fill:#FFFFFF;}
	.st3{fill:#666666;}
	.st4{fill:#FFE6B4;}
	.st5{fill:#FFB955;}
</style>
<path class="st0" d="M129.6,67.8H96.2l23.7-23.7c3.2-3.2,3.2-8.5,0-11.7s-8.5-3.2-11.7,0L84.5,56.1V22.7c0-4.6-3.7-8.3-8.3-8.3
	c-4.6,0-8.3,3.7-8.3,8.3v33.4L44.3,32.5c-3.2-3.2-8.5-3.2-11.7,0s-3.2,8.5,0,11.7l23.7,23.6H22.7c-4.6,0-8.3,3.7-8.3,8.3
	c0,4.6,3.7,8.3,8.3,8.3h33.4l-23.7,23.7c-3.2,3.2-3.2,8.5,0,11.7s8.5,3.2,11.7,0l23.7-23.6v33.4c0,4.6,3.7,8.3,8.3,8.3
	c4.6,0,8.3-3.7,8.3-8.3V96.1l23.7,23.7c3.2,3.2,8.5,3.2,11.7,0s3.2-8.5,0-11.7L96.2,84.4h33.4c4.6,0,8.3-3.7,8.3-8.3
	C137.9,71.6,134.2,67.8,129.6,67.8z"/>
<circle class="st1" cx="76.2" cy="76.1" r="51.4"/>
<g>
	<g>
		<path class="st2" d="M78.5,135.3h-4.7c-1.9,0-3.4-1.6-3.4-3.4V20.4c0-1.9,1.6-3.4,3.4-3.4h4.7c1.9,0,3.4,1.5,3.4,3.4v111.5
			C81.9,133.8,80.4,135.3,78.5,135.3z"/>
		<path class="st0" d="M76.2,22.7c0-2.1-1.2-4-2.9-5c-1.7,1-2.9,2.8-2.9,5v106.9c0,2.1,1.2,4,2.9,5c1.7-1,2.9-2.8,2.9-5V22.7z"/>
		<path class="st3" d="M76.2,137.9c-4.6,0-8.3-3.7-8.3-8.3V22.7c0-4.6,3.7-8.3,8.3-8.3c4.6,0,8.3,3.7,8.3,8.3v106.9
			C84.5,134.1,80.8,137.9,76.2,137.9z M76.2,19.4c-1.8,0-3.3,1.5-3.3,3.3v106.9c0,1.8,1.5,3.3,3.3,3.3s3.3-1.5,3.3-3.3V22.7
			C79.4,20.9,78,19.4,76.2,19.4z"/>
	</g>
	<g>
		<path class="st2" d="M119.7,116.4l-3.3,3.3c-1.3,1.3-3.5,1.3-4.9,0L32.7,40.8c-1.3-1.3-1.3-3.5,0-4.9l3.3-3.3
			c1.3-1.3,3.5-1.3,4.9,0l78.9,78.9C121,112.8,121,115,119.7,116.4z"/>
		<path class="st0" d="M38.4,38.3c-1.5-1.5-3.6-2-5.5-1.5c-0.5,1.9,0,4,1.5,5.5l75.6,75.6c1.5,1.5,3.6,2,5.6,1.5
			c0.5-1.9,0-4.1-1.5-5.6L38.4,38.3z"/>
		<path class="st3" d="M119.8,119.8c-3.2,3.2-8.5,3.2-11.7,0L32.5,44.2c-3.2-3.2-3.2-8.5,0-11.7s8.5-3.2,11.7,0l75.6,75.6
			C123.1,111.3,123.1,116.6,119.8,119.8z M36.1,36c-1.3,1.3-1.3,3.3,0,4.6l75.6,75.6c1.3,1.3,3.3,1.3,4.6,0s1.3-3.3,0-4.6L40.7,36
			C39.4,34.8,37.4,34.8,36.1,36z"/>
	</g>
	<g>
		<path class="st2" d="M135.4,73.8v4.7c0,1.9-1.6,3.4-3.4,3.4H20.4c-1.9,0-3.4-1.6-3.4-3.4v-4.7c0-1.9,1.5-3.4,3.4-3.4h111.5
			C133.8,70.4,135.4,71.9,135.4,73.8z"/>
		<path class="st0" d="M22.7,76.1c-2.1,0-4,1.2-5,2.9c1,1.7,2.8,2.9,5,2.9h106.9c2.1,0,4-1.2,5-2.9c-1-1.7-2.8-2.9-5-2.9H22.7z"/>
		<path class="st3" d="M137.9,76.1c0,4.6-3.7,8.3-8.3,8.3H22.7c-4.6,0-8.3-3.7-8.3-8.3c0-4.6,3.7-8.3,8.3-8.3h106.9
			C134.2,67.8,137.9,71.6,137.9,76.1z M19.5,76.1c0,1.8,1.5,3.3,3.3,3.3h106.9c1.8,0,3.3-1.5,3.3-3.3s-1.5-3.3-3.3-3.3H22.7
			C21,72.9,19.5,74.3,19.5,76.1z"/>
	</g>
	<g>
		<path class="st2" d="M116.4,32.6l3.3,3.3c1.3,1.3,1.3,3.5,0,4.9l-78.9,78.9c-1.3,1.3-3.5,1.3-4.9,0l-3.3-3.3
			c-1.3-1.3-1.3-3.5,0-4.9l78.9-78.9C112.9,31.3,115.1,31.3,116.4,32.6z"/>
		<path class="st0" d="M38.4,113.9c-1.5,1.5-2,3.6-1.5,5.6c1.9,0.5,4,0,5.5-1.5l75.6-75.6c1.5-1.5,2-3.6,1.5-5.5
			c-1.9-0.5-4.1,0-5.6,1.5L38.4,113.9z"/>
		<path class="st3" d="M119.8,32.5c3.2,3.2,3.2,8.5,0,11.7l-75.6,75.6c-3.2,3.2-8.5,3.2-11.7,0s-3.2-8.5,0-11.7l75.6-75.6
			C111.3,29.3,116.6,29.3,119.8,32.5z M36.1,116.2c1.3,1.3,3.3,1.3,4.6,0l75.6-75.6c1.3-1.3,1.3-3.3,0-4.6c-1.3-1.3-3.3-1.3-4.6,0
			l-75.6,75.6C34.8,112.9,34.8,114.9,36.1,116.2z"/>
	</g>
</g>
<g>
	<circle class="st2" cx="76.2" cy="76.1" r="24.6"/>
	<ellipse class="st0" cx="76.2" cy="77.7" rx="24.4" ry="21.3"/>
	<path class="st3" d="M76.2,103.3c-15,0-27.1-12.2-27.1-27.1S61.2,49,76.2,49s27.1,12.2,27.1,27.1S91.1,103.3,76.2,103.3z M76.2,54
		C64,54,54.1,64,54.1,76.1S64,98.2,76.2,98.2s22.1-9.9,22.1-22.1S88.4,54,76.2,54z"/>
</g>
<g>
	<circle class="st2" cx="76.2" cy="76.1" r="15.1"/>
	<ellipse class="st0" cx="76.2" cy="79.7" rx="15" ry="13.1"/>
	<path class="st3" d="M76.2,92.8c-9.2,0-16.7-7.5-16.7-16.7S67,59.4,76.2,59.4s16.7,7.5,16.7,16.7S85.4,92.8,76.2,92.8z M76.2,62.5
		c-7.5,0-13.6,6.1-13.6,13.6s6.1,13.6,13.6,13.6s13.6-6.1,13.6-13.6S83.7,62.5,76.2,62.5z"/>
</g>
<g>
	<g>
		<path class="st4" d="M144.9,147.6h-27c-2.1,0-3.8-1.7-3.8-3.8v-5.1c0-2.1,1.7-3.8,3.8-3.8h27c2.1,0,3.8,1.7,3.8,3.8v5.1
			C148.7,145.9,147,147.6,144.9,147.6z"/>
		<path class="st5" d="M119.6,140.6c-2.5,0-4.6,1.5-5.2,3.5c0.6,2,2.7,3.5,5.2,3.5h23.7c2.5,0,4.6-1.5,5.2-3.5
			c-0.6-2-2.7-3.5-5.2-3.5H119.6z"/>
		<path class="st3" d="M143.2,148.7h-23.7c-3.7,0-6.8-2.6-6.8-5.8v-3.4c0-3.2,3-5.8,6.8-5.8h23.7c3.7,0,6.8,2.6,6.8,5.8v3.4
			C150,146.1,147,148.7,143.2,148.7z M119.6,136c-2.2,0-4.1,1.6-4.1,3.5v3.4c0,1.9,1.8,3.5,4.1,3.5h23.7c2.2,0,4.1-1.6,4.1-3.5v-3.4
			c0-1.9-1.8-3.5-4.1-3.5H119.6z"/>
	</g>
	<g>
		<path class="st4" d="M144.3,132.6h-27c-2.1,0-3.8-1.7-3.8-3.8v-5.1c0-2.1,1.7-3.8,3.8-3.8h27c2.1,0,3.8,1.7,3.8,3.8v5.1
			C148.1,130.9,146.4,132.6,144.3,132.6z"/>
		<path class="st5" d="M119,125.6c-2.5,0-4.6,1.5-5.2,3.5c0.6,2,2.7,3.5,5.2,3.5h23.7c2.5,0,4.6-1.5,5.2-3.5c-0.6-2-2.7-3.5-5.2-3.5
			H119z"/>
		<path class="st3" d="M142.6,133.7H119c-3.7,0-6.8-2.6-6.8-5.8v-3.4c0-3.2,3-5.8,6.8-5.8h23.7c3.7,0,6.8,2.6,6.8,5.8v3.4
			C149.4,131.1,146.4,133.7,142.6,133.7z M119,121c-2.2,0-4.1,1.6-4.1,3.5v3.4c0,1.9,1.8,3.5,4.1,3.5h23.7c2.2,0,4.1-1.6,4.1-3.5
			v-3.4c0-1.9-1.8-3.5-4.1-3.5C142.6,121,119,121,119,121z"/>
	</g>
	<g>
		<path class="st4" d="M144.3,117.6h-27c-2.1,0-3.8-1.7-3.8-3.8v-5.1c0-2.1,1.7-3.8,3.8-3.8h27c2.1,0,3.8,1.7,3.8,3.8v5.1
			C148.1,115.9,146.4,117.6,144.3,117.6z"/>
		<path class="st5" d="M119,110.6c-2.5,0-4.6,1.5-5.2,3.5c0.6,2,2.7,3.5,5.2,3.5h23.7c2.5,0,4.6-1.5,5.2-3.5c-0.6-2-2.7-3.5-5.2-3.5
			H119z"/>
		<path class="st3" d="M142.6,118.7H119c-3.7,0-6.8-2.6-6.8-5.8v-3.4c0-3.2,3-5.8,6.8-5.8h23.7c3.7,0,6.8,2.6,6.8,5.8v3.4
			C149.4,116.1,146.4,118.7,142.6,118.7z M119,106.1c-2.2,0-4.1,1.6-4.1,3.5v3.4c0,1.9,1.8,3.5,4.1,3.5h23.7c2.2,0,4.1-1.6,4.1-3.5
			v-3.4c0-1.9-1.8-3.5-4.1-3.5H119z"/>
	</g>
	<g>
		<path class="st4" d="M144.3,102.9h-27c-2.1,0-3.8-1.7-3.8-3.8v-5.1c0-2.1,1.7-3.8,3.8-3.8h27c2.1,0,3.8,1.7,3.8,3.8v5.1
			C148.1,101.2,146.4,102.9,144.3,102.9z"/>
		<path class="st5" d="M119,96c-2.5,0-4.6,1.5-5.2,3.5c0.6,2,2.7,3.5,5.2,3.5h23.7c2.5,0,4.6-1.5,5.2-3.5c-0.6-2-2.7-3.5-5.2-3.5
			H119z"/>
		<path class="st3" d="M142.6,104.1H119c-3.7,0-6.8-2.6-6.8-5.8v-3.4c0-3.2,3-5.8,6.8-5.8h23.7c3.7,0,6.8,2.6,6.8,5.8v3.4
			C149.4,101.5,146.4,104.1,142.6,104.1z M119,91.4c-2.2,0-4.1,1.6-4.1,3.5v3.4c0,1.9,1.8,3.5,4.1,3.5h23.7c2.2,0,4.1-1.6,4.1-3.5
			v-3.4c0-1.9-1.8-3.5-4.1-3.5H119z"/>
	</g>
	<g>
		<path class="st4" d="M143.2,88.3h-27c-2.1,0-3.8-1.7-3.8-3.8v-5.1c0-2.1,1.7-3.8,3.8-3.8h27c2.1,0,3.8,1.7,3.8,3.8v5.1
			C147,86.6,145.3,88.3,143.2,88.3z"/>
		<path class="st5" d="M117.9,81.3c-2.5,0-4.6,1.5-5.2,3.5c0.6,2,2.7,3.5,5.2,3.5h23.7c2.5,0,4.6-1.5,5.2-3.5
			c-0.6-2-2.7-3.5-5.2-3.5H117.9z"/>
		<path class="st3" d="M141.6,89.5h-23.7c-3.7,0-6.8-2.6-6.8-5.8v-3.4c0-3.2,3-5.8,6.8-5.8h23.7c3.7,0,6.8,2.6,6.8,5.8v3.4
			C148.3,86.9,145.3,89.5,141.6,89.5z M117.9,76.8c-2.2,0-4.1,1.6-4.1,3.5v3.4c0,1.9,1.8,3.5,4.1,3.5h23.7c2.2,0,4.1-1.6,4.1-3.5
			v-3.4c0-1.9-1.8-3.5-4.1-3.5H117.9z"/>
	</g>
	<g>
		<path class="st4" d="M107.1,147.6h-27c-2.1,0-3.8-1.7-3.8-3.8v-5.1c0-2.1,1.7-3.8,3.8-3.8h27c2.1,0,3.8,1.7,3.8,3.8v5.1
			C110.8,145.9,109.1,147.6,107.1,147.6z"/>
		<path class="st5" d="M81.7,140.6c-2.5,0-4.6,1.5-5.2,3.5c0.6,2,2.7,3.5,5.2,3.5h23.7c2.5,0,4.6-1.5,5.2-3.5
			c-0.6-2-2.7-3.5-5.2-3.5H81.7z"/>
		<path class="st3" d="M105.4,148.7H81.7c-3.7,0-6.8-2.6-6.8-5.8v-3.4c0-3.2,3-5.8,6.8-5.8h23.7c3.7,0,6.8,2.6,6.8,5.8v3.4
			C112.2,146.1,109.2,148.7,105.4,148.7z M81.7,136c-2.2,0-4.1,1.6-4.1,3.5v3.4c0,1.9,1.8,3.5,4.1,3.5h23.7c2.2,0,4.1-1.6,4.1-3.5
			v-3.4c0-1.9-1.8-3.5-4.1-3.5H81.7z"/>
	</g>
	<g>
		<path class="st4" d="M107.2,131.9h-27c-2.1,0-3.8-1.7-3.8-3.8v-5.1c0-2.1,1.7-3.8,3.8-3.8h27c2.1,0,3.8,1.7,3.8,3.8v5.1
			C111,130.2,109.3,131.9,107.2,131.9z"/>
		<path class="st5" d="M81.9,125c-2.5,0-4.6,1.5-5.2,3.5c0.6,2,2.7,3.5,5.2,3.5h23.7c2.5,0,4.6-1.5,5.2-3.5c-0.6-2-2.7-3.5-5.2-3.5
			H81.9z"/>
		<path class="st3" d="M105.5,133.1H81.9c-3.7,0-6.8-2.6-6.8-5.8v-3.4c0-3.2,3-5.8,6.8-5.8h23.7c3.7,0,6.8,2.6,6.8,5.8v3.4
			C112.3,130.5,109.3,133.1,105.5,133.1z M81.9,120.4c-2.2,0-4.1,1.6-4.1,3.5v3.4c0,1.9,1.8,3.5,4.1,3.5h23.7c2.2,0,4.1-1.6,4.1-3.5
			v-3.4c0-1.9-1.8-3.5-4.1-3.5H81.9z"/>
	</g>
	<g>
		<path class="st4" d="M107.2,116.9h-27c-2.1,0-3.8-1.7-3.8-3.8v-5.1c0-2.1,1.7-3.8,3.8-3.8h27c2.1,0,3.8,1.7,3.8,3.8v5.1
			C111,115.3,109.3,116.9,107.2,116.9z"/>
		<path class="st5" d="M81.9,110c-2.5,0-4.6,1.5-5.2,3.5c0.6,2,2.7,3.5,5.2,3.5h23.7c2.5,0,4.6-1.5,5.2-3.5c-0.6-2-2.7-3.5-5.2-3.5
			H81.9z"/>
		<path class="st3" d="M105.5,118.1H81.9c-3.7,0-6.8-2.6-6.8-5.8v-3.4c0-3.2,3-5.8,6.8-5.8h23.7c3.7,0,6.8,2.6,6.8,5.8v3.4
			C112.3,115.5,109.3,118.1,105.5,118.1z M81.9,105.4c-2.2,0-4.1,1.6-4.1,3.5v3.4c0,1.9,1.8,3.5,4.1,3.5h23.7c2.2,0,4.1-1.6,4.1-3.5
			v-3.4c0-1.9-1.8-3.5-4.1-3.5H81.9z"/>
	</g>
	<g>
		<path class="st4" d="M69.8,147.6h-27c-2.1,0-3.8-1.7-3.8-3.8v-5.1c0-2.1,1.7-3.8,3.8-3.8h27c2.1,0,3.8,1.7,3.8,3.8v5.1
			C73.6,145.9,71.9,147.6,69.8,147.6z"/>
		<path class="st5" d="M44.5,140.6c-2.5,0-4.6,1.5-5.2,3.5c0.6,2,2.7,3.5,5.2,3.5h23.7c2.5,0,4.6-1.5,5.2-3.5
			c-0.6-2-2.7-3.5-5.2-3.5H44.5z"/>
		<path class="st3" d="M68.2,148.7H44.5c-3.7,0-6.8-2.6-6.8-5.8v-3.4c0-3.2,3-5.8,6.8-5.8h23.7c3.7,0,6.8,2.6,6.8,5.8v3.4
			C75,146.1,71.9,148.7,68.2,148.7z M44.5,136c-2.2,0-4.1,1.6-4.1,3.5v3.4c0,1.9,1.8,3.5,4.1,3.5h23.7c2.2,0,4.1-1.6,4.1-3.5v-3.4
			c0-1.9-1.8-3.5-4.1-3.5H44.5z"/>
	</g>
</g>
</svg>
